PathFileType	4	(X/Y/Z)	/Users/itak/Documents/Research/Walk-IL/dataset/trc/00075_00006.trc
DataRate	CameraRate	NumFrames	NumMarkers	Units	OrigDataRate	OrigDataStartFrame	OrigNumFrames
100.000000	100.000000	4	53	mm	100.000000	364	729
Frame#	Time	RPSI			LPSI			L3			STRN			T10			C7			CLAV			RBAK			LBAK			LSHO			LUPA			LAEL			LAOL			LWTS			LWPS			LFRA			LIFD			LHPS			LHTS			RSHO			RUPA			RAEL			RAOL			RWTS			RWPS			RFRA			RIFD			RHTS			RHPS			RBHD			LFHD			RFHD			LBHD			LHIP			RHIP			RASI			LASI			LKNE			LTHI			LANK			LTIP			LTOE			LMT1			LMT5			LHEE			RKNE			RTHI			RANK			RTIP			RTOE			RMT1			RMT5			RHEE			
		X1	Y1	Z1	X2	Y2	Z2	X3	Y3	Z3	X4	Y4	Z4	X5	Y5	Z5	X6	Y6	Z6	X7	Y7	Z7	X8	Y8	Z8	X9	Y9	Z9	X10	Y10	Z10	X11	Y11	Z11	X12	Y12	Z12	X13	Y13	Z13	X14	Y14	Z14	X15	Y15	Z15	X16	Y16	Z16	X17	Y17	Z17	X18	Y18	Z18	X19	Y19	Z19	X20	Y20	Z20	X21	Y21	Z21	X22	Y22	Z22	X23	Y23	Z23	X24	Y24	Z24	X25	Y25	Z25	X26	Y26	Z26	X27	Y27	Z27	X28	Y28	Z28	X29	Y29	Z29	X30	Y30	Z30	X31	Y31	Z31	X32	Y32	Z32	X33	Y33	Z33	X34	Y34	Z34	X35	Y35	Z35	X36	Y36	Z36	X37	Y37	Z37	X38	Y38	Z38	X39	Y39	Z39	X40	Y40	Z40	X41	Y41	Z41	X42	Y42	Z42	X43	Y43	Z43	X44	Y44	Z44	X45	Y45	Z45	X46	Y46	Z46	X47	Y47	Z47	X48	Y48	Z48	X49	Y49	Z49	X50	Y50	Z50	X51	Y51	Z51	X52	Y52	Z52	X53	Y53	Z53	

365	3.64	-91.94556427001953	1019.830322265625	-299.3471069335938	-135.2738647460938	1019.496643066406	-464.4512634277344	-115.3150634765625	1079.0615234375	-393.18798828125	141.8041687011719	1287.3681640625	-435.8772583007812	-126.5266265869141	1211.131469726562	-403.3775634765625	-76.91583251953125	1479.702026367188	-416.6505737304688	106.9710159301758	1401.093017578125	-433.4072570800781	-123.8250198364258	1339.515747070312	-336.625732421875	-108.0237731933594	1440.374389648438	-510.6665344238281	-18.05577659606934	1453.800659179688	-594.68505859375	-51.75692749023438	1337.866333007812	-680.1146240234375	-45.50749206542969	1133.781494140625	-737.8551025390625	-82.24319458007812	1102.100463867188	-641.43359375	39.8064079284668	885.139892578125	-756.8634643554688	-33.88156890869141	891.08154296875	-797.420166015625	-36.01960372924805	1030.041259765625	-772.6564331054688	41.01643371582031	700.7296752929688	-800.871337890625	-10.17446613311768	812.1776123046875	-823.021240234375	51.44546890258789	805.2574462890625	-786.533447265625	2.914851427078247	1450.86669921875	-249.8561096191406	-6.861262798309326	1386.954345703125	-185.1239013671875	-51.16728973388672	1132.549194335938	-131.3812713623047	-30.14913177490234	1101.649780273438	-223.9216003417969	107.7299957275391	887.78564453125	-158.7406158447266	38.2511100769043	870.6346435546875	-109.5326309204102	-35.57126235961914	1050.190063476562	-116.5669631958008	117.6445083618164	697.2453002929688	-153.5771636962891	128.1675567626953	780.7111206054688	-160.5126953125	70.71908569335938	780.69775390625	-109.4209823608398	-10.59653472900391	1679.23876953125	-499.6848449707031	96.90839385986328	1684.155883789062	-311.8631591796875	150.6403198242188	1701.630126953125	-425.4588623046875	-59.87967681884766	1653.223510742188	-374.3787841796875	-54.69199371337891	960.345458984375	-577.1889038085938	-9.260478973388672	952.4107666015625	-231.5385284423828	104.4857788085938	976.4544677734375	-283.3014526367188	65.248779296875	970.509765625	-546.82080078125	64.36531829833984	502.2191772460938	-571.2655029296875	13.71937274932861	640.4324340820312	-593.8480834960938	-70.35900115966797	44.48452758789062	-612.3768310546875	-6.466207027435303	262.0390319824219	-606.4052734375	135.1411743164062	38.87704849243164	-624.01904296875	92.69467163085938	41.24449157714844	-565.4381103515625	28.05855941772461	33.9820442199707	-659.2276611328125	-116.9587478637695	43.46004867553711	-533.523193359375	189.9167175292969	524.1890258789062	-316.3682556152344	111.9375839233398	784.3697509765625	-261.8397216796875	-150.0822296142578	171.5408935546875	-294.2615966796875	123.7918167114258	415.4216613769531	-307.5473937988281	15.09077835083008	63.26214218139648	-368.3512268066406	-41.48014068603516	92.79227447509766	-395.7306518554688	-45.93022155761719	107.3677444458008	-298.47900390625	-193.8161468505859	200.3170776367188	-343.1878967285156	
366	3.65	-85.79151153564453	1020.315185546875	-302.2536315917969	-126.9768753051758	1020.116882324219	-467.6701965332031	-108.2678527832031	1080.09521484375	-396.8775024414062	150.0267333984375	1288.00732421875	-435.4661560058594	-118.8507232666016	1211.642944335938	-407.9235229492188	-68.86744689941406	1480.238891601562	-420.1862487792969	115.0685348510742	1401.650512695312	-433.4949951171875	-117.2946853637695	1340.084838867188	-341.1834716796875	-98.36206817626953	1440.9501953125	-514.8677978515625	-6.806482791900635	1454.402954101562	-597.0635986328125	-38.38962173461914	1338.583984375	-683.3412475585938	-29.75050735473633	1134.659790039062	-741.6643676757812	-68.06226348876953	1102.406494140625	-646.135986328125	58.76644515991211	887.0330200195312	-759.387939453125	-14.28585529327393	891.962890625	-801.1202392578125	-18.50935554504395	1031.000244140625	-776.434814453125	63.17376327514648	702.62890625	-803.209228515625	10.83046436309814	813.3872680664062	-826.2830810546875	71.95362091064453	807.2521362304688	-788.7713623046875	7.731037616729736	1451.407470703125	-252.0111846923828	-3.387927532196045	1387.614624023438	-187.4445343017578	-49.16178131103516	1133.412475585938	-134.2640991210938	-26.14157104492188	1102.344970703125	-226.2605133056641	109.8027420043945	888.2950439453125	-157.7046966552734	39.26399993896484	871.355712890625	-109.9665908813477	-34.08275985717773	1051.068481445312	-118.9722442626953	119.1000823974609	697.6600952148438	-152.0465698242188	129.98779296875	781.10205078125	-158.9140167236328	71.50418853759766	781.3026733398438	-109.0136260986328	-0.5849534869194031	1680.054443359375	-501.5239868164062	104.5288696289062	1684.169677734375	-312.1924133300781	159.7918853759766	1701.519287109375	-425.1726684570312	-51.66550827026367	1654.168334960938	-376.9416198730469	-45.3928108215332	960.7259521484375	-579.5236206054688	-3.608325719833374	953.5217895507812	-233.3699645996094	110.6877365112305	977.5263061523438	-283.9946899414062	74.29354095458984	970.9413452148438	-547.9434814453125	66.87295532226562	501.5419311523438	-571.64208984375	18.69644546508789	640.3082885742188	-594.7498168945312	-70.22344970703125	44.58411407470703	-612.2044067382812	-5.428765296936035	261.8587951660156	-606.5023803710938	135.1849670410156	38.87575912475586	-623.9844360351562	92.71601867675781	41.07852935791016	-565.3216552734375	28.07638740539551	34.05845260620117	-659.1184692382812	-116.7604522705078	43.49397277832031	-533.3826904296875	203.5054016113281	528.138916015625	-315.8737487792969	120.5268020629883	787.1129150390625	-261.927734375	-125.4642562866211	163.3597564697266	-304.4006042480469	139.8206024169922	416.8201904296875	-309.0668334960938	46.4400634765625	63.50699615478516	-374.3409423828125	-10.92777156829834	90.12641906738281	-403.2569580078125	-18.51761245727539	104.0830001831055	-306.1763916015625	-169.2093200683594	190.3286743164062	-354.2998046875	
367	3.66	-79.61551666259766	1020.654418945312	-305.0066223144531	-118.6668548583984	1020.609802246094	-470.76904296875	-101.1181793212891	1080.973754882812	-400.3606872558594	158.2284698486328	1288.423950195312	-434.964111328125	-111.0225448608398	1211.966186523438	-412.3084716796875	-60.75490951538086	1480.592041015625	-423.5416564941406	123.1740951538086	1401.99267578125	-433.4757690429688	-110.6591567993164	1340.4736328125	-345.5584411621094	-88.67565155029297	1441.339721679688	-518.842041015625	4.414255142211914	1454.784912109375	-599.2301635742188	-25.06941223144531	1339.100341796875	-686.2825927734375	-14.00211620330811	1135.375732421875	-745.2203369140625	-53.93985366821289	1102.53076171875	-650.6373901367188	77.84796142578125	888.858154296875	-761.42529296875	5.482263565063477	892.6797485351562	-804.3721923828125	-0.9517354965209961	1031.792236328125	-779.8851928710938	85.75668334960938	704.5136108398438	-804.8396606445312	32.12995529174805	814.4495239257812	-828.9970703125	92.71440124511719	809.2318115234375	-790.4541625976562	12.66569042205811	1451.742309570312	-254.0740509033203	0.2562244236469269	1388.0615234375	-189.6947937011719	-47.01102828979492	1134.091552734375	-137.0520629882812	-21.99226379394531	1102.840698242188	-228.4443054199219	111.9160842895508	888.6340942382812	-156.6435546875	40.357421875	871.8911743164062	-110.3876647949219	-32.4630241394043	1051.754760742188	-121.2942428588867	120.5573654174805	697.903076171875	-150.5759735107422	131.8112487792969	781.3133544921875	-157.3314056396484	72.34654235839844	781.7196044921875	-108.6434478759766	9.398881912231445	1680.697998046875	-503.1246948242188	112.1820678710938	1683.967651367188	-312.3751220703125	168.9204559326172	1701.2431640625	-424.7452087402344	-43.40790176391602	1654.8828125	-379.2720642089844	-36.10002136230469	960.976806640625	-581.7266845703125	2.073309659957886	954.3930053710938	-235.1630554199219	116.909423828125	978.33203125	-284.61376953125	83.32602691650391	971.2030029296875	-548.9483032226562	69.38439178466797	500.8213195800781	-572.0545654296875	23.57171249389648	640.1172485351562	-595.6519165039062	-70.0966796875	44.67886352539062	-612.05908203125	-4.371566295623779	261.673828125	-606.5987548828125	135.2254791259766	38.88455200195312	-623.9464721679688	92.73456573486328	40.93229675292969	-565.211669921875	28.08831977844238	34.12984085083008	-659.024658203125	-116.5435028076172	43.51035308837891	-533.2609252929688	216.5102233886719	531.843505859375	-315.1663818359375	128.8903198242188	789.6053466796875	-261.8904418945312	-100.0520095825195	154.7581939697266	-314.175048828125	155.5713348388672	417.8766479492188	-310.3611755371094	78.21846771240234	63.68486785888672	-379.5506591796875	20.27016639709473	87.31319427490234	-410.1094665527344	9.43550968170166	100.5402526855469	-313.24072265625	-143.6924438476562	179.8388366699219	-365.1264038085938	
368	3.67	-73.39265441894531	1020.841796875	-307.62890625	-110.3332214355469	1020.959045410156	-473.7457580566406	-93.82414245605469	1081.654907226562	-403.6225891113281	166.4059448242188	1288.594116210938	-434.3810424804688	-103.0655212402344	1212.094604492188	-416.4830322265625	-52.57499313354492	1480.751831054688	-426.7042846679688	131.2944030761719	1402.10888671875	-433.3540344238281	-103.9123458862305	1340.6689453125	-349.7290344238281	-78.96070861816406	1441.533447265625	-522.5758666992188	15.59960746765137	1454.943603515625	-601.1837768554688	-11.8093900680542	1339.40576171875	-688.9423217773438	1.745550394058228	1135.914306640625	-748.5137939453125	-39.8446159362793	1102.460693359375	-654.92626953125	97.03723907470703	890.599609375	-762.9531860351562	25.42513656616211	893.25	-807.1795043945312	16.66948318481445	1032.413818359375	-782.9969482421875	108.6805038452148	706.3893432617188	-805.7858276367188	53.71721267700195	815.392578125	-831.17919921875	113.6888046264648	811.18798828125	-791.57861328125	17.74524116516113	1451.853271484375	-256.0317993164062	4.097762584686279	1388.282836914062	-191.86474609375	-44.72431564331055	1134.57177734375	-139.7525024414062	-17.67213821411133	1103.110961914062	-230.4748992919922	114.0822906494141	888.7798461914062	-155.5637817382812	41.53936767578125	872.2262573242188	-110.7985610961914	-30.7045841217041	1052.232543945312	-123.5332412719727	122.0587615966797	697.9657592773438	-149.1516265869141	133.6623840332031	781.3353881835938	-155.7596130371094	73.27442932128906	781.93798828125	-108.3008651733398	19.35888290405273	1681.146240234375	-504.4996643066406	119.8704299926758	1683.5517578125	-312.4340209960938	178.0286560058594	1700.794555664062	-424.1857299804688	-35.09866333007812	1655.353515625	-381.3740234375	-26.81204795837402	961.0923461914062	-583.8080444335938	7.795521259307861	955.0064697265625	-236.91064453125	123.1474761962891	978.852783203125	-285.1637573242188	92.34861755371094	971.287353515625	-549.8424682617188	71.93785858154297	500.0406494140625	-572.5142822265625	28.39121055603027	639.8515625	-596.5619506835938	-69.9757080078125	44.7735481262207	-611.936279296875	-3.292174100875854	261.4780578613281	-606.69921875	135.2628021240234	38.90037536621094	-623.9061889648438	92.75640869140625	40.81194686889648	-565.1115112304688	28.09688568115234	34.19561004638672	-658.943603515625	-116.3325271606445	43.52582931518555	-533.155029296875	228.9246215820312	535.2460327148438	-314.2819519042969	137.0072174072266	791.79931640625	-261.7355041503906	-73.83927154541016	145.8718872070312	-323.4650268554688	171.0369567871094	418.605224609375	-311.4346313476562	110.3401565551758	63.84860610961914	-383.9268188476562	52.06278991699219	84.46485900878906	-416.1828918457031	37.90071868896484	96.84274291992188	-319.6008605957031	-117.2757568359375	168.9761657714844	-375.5252380371094	
